<mxfile host="Electron" agent="Mozilla/5.0 (Windows NT 10.0; Win64; x64) AppleWebKit/537.36 (KHTML, like Gecko) draw.io/28.1.2 Chrome/138.0.7204.243 Electron/37.4.0 Safari/537.36" version="28.1.2">
  <diagram name="Page-1" id="v5RAu5klR39Lm09rsD4q">
    <mxGraphModel dx="983" dy="705" grid="1" gridSize="10" guides="1" tooltips="1" connect="1" arrows="1" fold="1" page="1" pageScale="1" pageWidth="850" pageHeight="1100" math="0" shadow="0">
      <root>
        <mxCell id="0" />
        <mxCell id="1" parent="0" />
        <mxCell id="2CAeWcOmt6Jaj7QoAJ3q-1" value="Hardware" style="rounded=0;whiteSpace=wrap;html=1;fillColor=#ffe6cc;strokeColor=#d79b00;" vertex="1" parent="1">
          <mxGeometry x="175" y="520" width="230" height="40" as="geometry" />
        </mxCell>
        <mxCell id="2CAeWcOmt6Jaj7QoAJ3q-2" value="Host Operating System" style="rounded=0;whiteSpace=wrap;html=1;fillColor=#fff2cc;strokeColor=#d6b656;" vertex="1" parent="1">
          <mxGeometry x="175" y="470" width="230" height="40" as="geometry" />
        </mxCell>
        <mxCell id="2CAeWcOmt6Jaj7QoAJ3q-3" value="Hypervisor" style="rounded=0;whiteSpace=wrap;html=1;fillColor=#b1ddf0;strokeColor=#10739e;" vertex="1" parent="1">
          <mxGeometry x="175" y="420" width="230" height="40" as="geometry" />
        </mxCell>
        <mxCell id="2CAeWcOmt6Jaj7QoAJ3q-4" value="Guest OS" style="rounded=0;whiteSpace=wrap;html=1;fillColor=#60a917;fontColor=#ffffff;strokeColor=#2D7600;" vertex="1" parent="1">
          <mxGeometry x="175" y="370" width="70" height="40" as="geometry" />
        </mxCell>
        <mxCell id="2CAeWcOmt6Jaj7QoAJ3q-5" value="Guest OS" style="rounded=0;whiteSpace=wrap;html=1;fillColor=#e51400;fontColor=#ffffff;strokeColor=#B20000;" vertex="1" parent="1">
          <mxGeometry x="255" y="370" width="70" height="40" as="geometry" />
        </mxCell>
        <mxCell id="2CAeWcOmt6Jaj7QoAJ3q-6" value="Guest OS" style="rounded=0;whiteSpace=wrap;html=1;fillColor=#0050ef;fontColor=#ffffff;strokeColor=#001DBC;" vertex="1" parent="1">
          <mxGeometry x="335" y="370" width="70" height="40" as="geometry" />
        </mxCell>
        <mxCell id="2CAeWcOmt6Jaj7QoAJ3q-8" value="Bins/Libs" style="rounded=0;whiteSpace=wrap;html=1;fillColor=#60a917;fontColor=#ffffff;strokeColor=#2D7600;" vertex="1" parent="1">
          <mxGeometry x="175" y="320" width="70" height="40" as="geometry" />
        </mxCell>
        <mxCell id="2CAeWcOmt6Jaj7QoAJ3q-10" value="App 1" style="rounded=0;whiteSpace=wrap;html=1;fillColor=#60a917;fontColor=#ffffff;strokeColor=#2D7600;" vertex="1" parent="1">
          <mxGeometry x="175" y="270" width="70" height="40" as="geometry" />
        </mxCell>
        <mxCell id="2CAeWcOmt6Jaj7QoAJ3q-11" value="Bins/Libs" style="rounded=0;whiteSpace=wrap;html=1;fillColor=#e51400;fontColor=#ffffff;strokeColor=#B20000;" vertex="1" parent="1">
          <mxGeometry x="255" y="320" width="70" height="40" as="geometry" />
        </mxCell>
        <mxCell id="2CAeWcOmt6Jaj7QoAJ3q-12" value="App 2" style="rounded=0;whiteSpace=wrap;html=1;fillColor=#e51400;fontColor=#ffffff;strokeColor=#B20000;" vertex="1" parent="1">
          <mxGeometry x="255" y="270" width="70" height="40" as="geometry" />
        </mxCell>
        <mxCell id="2CAeWcOmt6Jaj7QoAJ3q-13" value="Bins/Libs" style="rounded=0;whiteSpace=wrap;html=1;fillColor=#0050ef;fontColor=#ffffff;strokeColor=#001DBC;" vertex="1" parent="1">
          <mxGeometry x="335" y="320" width="70" height="40" as="geometry" />
        </mxCell>
        <mxCell id="2CAeWcOmt6Jaj7QoAJ3q-14" value="App 3" style="rounded=0;whiteSpace=wrap;html=1;fillColor=#0050ef;fontColor=#ffffff;strokeColor=#001DBC;" vertex="1" parent="1">
          <mxGeometry x="335" y="270" width="70" height="40" as="geometry" />
        </mxCell>
        <mxCell id="2CAeWcOmt6Jaj7QoAJ3q-15" value="Hardware" style="rounded=0;whiteSpace=wrap;html=1;fillColor=#ffe6cc;strokeColor=#d79b00;" vertex="1" parent="1">
          <mxGeometry x="445" y="520" width="230" height="40" as="geometry" />
        </mxCell>
        <mxCell id="2CAeWcOmt6Jaj7QoAJ3q-16" value="Host Operating System" style="rounded=0;whiteSpace=wrap;html=1;fillColor=#fff2cc;strokeColor=#d6b656;" vertex="1" parent="1">
          <mxGeometry x="445" y="470" width="230" height="40" as="geometry" />
        </mxCell>
        <mxCell id="2CAeWcOmt6Jaj7QoAJ3q-17" value="Container Runtime" style="rounded=0;whiteSpace=wrap;html=1;fillColor=#dae8fc;strokeColor=#6c8ebf;" vertex="1" parent="1">
          <mxGeometry x="445" y="420" width="230" height="40" as="geometry" />
        </mxCell>
        <mxCell id="2CAeWcOmt6Jaj7QoAJ3q-21" value="Bins/Libs" style="rounded=0;whiteSpace=wrap;html=1;fillColor=#60a917;fontColor=#ffffff;strokeColor=#2D7600;" vertex="1" parent="1">
          <mxGeometry x="445" y="370" width="70" height="40" as="geometry" />
        </mxCell>
        <mxCell id="2CAeWcOmt6Jaj7QoAJ3q-22" value="App 1" style="rounded=0;whiteSpace=wrap;html=1;fillColor=#60a917;fontColor=#ffffff;strokeColor=#2D7600;" vertex="1" parent="1">
          <mxGeometry x="445" y="320" width="70" height="40" as="geometry" />
        </mxCell>
        <mxCell id="2CAeWcOmt6Jaj7QoAJ3q-23" value="Bins/Libs" style="rounded=0;whiteSpace=wrap;html=1;fillColor=#e51400;fontColor=#ffffff;strokeColor=#B20000;" vertex="1" parent="1">
          <mxGeometry x="525" y="370" width="70" height="40" as="geometry" />
        </mxCell>
        <mxCell id="2CAeWcOmt6Jaj7QoAJ3q-24" value="App 2" style="rounded=0;whiteSpace=wrap;html=1;fillColor=#e51400;fontColor=#ffffff;strokeColor=#B20000;" vertex="1" parent="1">
          <mxGeometry x="525" y="320" width="70" height="40" as="geometry" />
        </mxCell>
        <mxCell id="2CAeWcOmt6Jaj7QoAJ3q-25" value="Bins/Libs" style="rounded=0;whiteSpace=wrap;html=1;fillColor=#0050ef;fontColor=#ffffff;strokeColor=#001DBC;" vertex="1" parent="1">
          <mxGeometry x="605" y="370" width="70" height="40" as="geometry" />
        </mxCell>
        <mxCell id="2CAeWcOmt6Jaj7QoAJ3q-26" value="App 3" style="rounded=0;whiteSpace=wrap;html=1;fillColor=#0050ef;fontColor=#ffffff;strokeColor=#001DBC;" vertex="1" parent="1">
          <mxGeometry x="605" y="320" width="70" height="40" as="geometry" />
        </mxCell>
        <mxCell id="2CAeWcOmt6Jaj7QoAJ3q-27" value="(1)" style="text;html=1;align=center;verticalAlign=middle;whiteSpace=wrap;rounded=0;" vertex="1" parent="1">
          <mxGeometry x="260" y="570" width="60" height="30" as="geometry" />
        </mxCell>
        <mxCell id="2CAeWcOmt6Jaj7QoAJ3q-28" value="(2)" style="text;html=1;align=center;verticalAlign=middle;whiteSpace=wrap;rounded=0;" vertex="1" parent="1">
          <mxGeometry x="530" y="570" width="60" height="30" as="geometry" />
        </mxCell>
      </root>
    </mxGraphModel>
  </diagram>
</mxfile>
